<?xml version="1.0" standalone="no"?>
<!DOCTYPE svg PUBLIC "-//W3C//DTD SVG 20010904//EN"
 "http://www.w3.org/TR/2001/REC-SVG-20010904/DTD/svg10.dtd">
<svg version="1.0" xmlns="http://www.w3.org/2000/svg"
 width="700.000000pt" height="700.000000pt" viewBox="0 0 700.000000 700.000000"
 preserveAspectRatio="xMidYMid meet">
<metadata>
Created by potrace 1.14, written by Peter Selinger 2001-2017
</metadata>
<g transform="translate(0.000000,700.000000) scale(0.100000,-0.100000)"
fill="#000000" stroke="none">
<path d="M3968 5516 c-2 -12 -3 -229 -3 -483 1 -255 -1 -463 -3 -463 -5 0
-199 116 -646 387 -215 130 -219 132 -231 110 -34 -62 -100 -174 -111 -187
-29 -35 -21 -50 46 -86 36 -20 99 -54 140 -76 41 -23 104 -57 140 -76 36 -19
88 -47 115 -62 82 -45 154 -84 255 -138 52 -28 119 -64 149 -80 l54 -30 -24
-15 c-13 -8 -89 -50 -169 -93 -80 -42 -161 -86 -180 -97 -19 -11 -78 -42 -130
-70 -52 -27 -99 -53 -105 -57 -11 -8 -68 -39 -217 -119 -54 -29 -98 -56 -98
-59 0 -4 9 -18 20 -32 11 -14 20 -28 20 -32 0 -4 15 -31 34 -60 18 -29 42 -69
53 -90 l19 -36 115 70 c63 38 132 80 154 93 22 12 152 90 289 174 137 83 252
151 256 151 4 0 13 7 20 15 35 42 36 25 36 -467 l0 -483 147 -1 147 -1 0 488
0 488 323 -195 c177 -108 331 -201 342 -207 10 -7 37 -23 60 -37 22 -13 50
-30 62 -36 12 -7 37 -21 54 -31 19 -10 34 -14 36 -8 2 6 35 62 72 125 61 101
67 116 52 126 -9 6 -52 30 -96 54 -44 24 -129 70 -190 103 -60 33 -139 75
-175 95 -36 19 -92 49 -125 68 -139 76 -213 116 -262 141 -29 15 -53 30 -53
33 0 5 269 153 519 286 53 28 121 64 151 81 30 16 99 54 152 83 l98 53 -19 31
c-10 17 -44 75 -76 128 l-57 98 -27 -18 c-14 -9 -35 -22 -46 -29 -11 -6 -192
-115 -402 -242 -210 -127 -384 -231 -387 -231 -3 0 -6 218 -6 484 l0 483 -144
0 c-139 0 -144 -1 -148 -21z"/>
<path d="M2222 4133 c-340 -831 -792 -1934 -884 -2158 -61 -148 -133 -324
-160 -390 -27 -66 -68 -165 -90 -220 -23 -55 -49 -119 -60 -142 -10 -23 -18
-45 -18 -48 0 -4 -6 -21 -14 -38 -8 -18 -27 -61 -41 -97 -56 -136 -143 -303
-190 -365 -36 -48 -97 -104 -143 -131 -36 -21 -172 -78 -180 -75 -1 1 -20 -2
-42 -5 l-40 -7 0 -53 0 -54 600 0 600 0 0 54 0 53 -73 7 c-284 26 -376 155
-306 431 23 91 80 239 260 683 105 257 231 564 279 682 48 118 127 312 175
430 48 118 119 292 157 385 38 94 85 211 105 260 20 50 39 93 43 98 3 4 30
-48 60 -115 29 -68 63 -145 75 -173 13 -27 35 -79 50 -115 15 -36 36 -84 46
-107 11 -24 27 -62 38 -85 38 -86 576 -1329 668 -1543 52 -121 98 -229 103
-240 23 -50 70 -206 79 -265 9 -56 9 -80 -3 -135 -5 -24 -36 -72 -63 -96 -36
-34 -75 -53 -143 -70 -30 -7 -57 -14 -60 -14 -3 -1 -37 -5 -77 -10 -39 -4 -73
-13 -75 -19 -2 -6 -4 -29 -3 -51 l0 -40 793 -3 c526 -1 792 1 793 8 1 5 1 26
1 45 0 19 0 40 -1 45 -1 6 -21 10 -46 10 -60 0 -184 26 -239 50 -110 47 -196
171 -327 468 -33 75 -66 151 -74 167 -7 17 -25 58 -39 92 -14 35 -37 86 -50
115 -43 97 -94 212 -141 323 -26 61 -55 128 -65 150 -10 22 -70 162 -134 310
-65 149 -123 284 -131 300 -11 26 -261 600 -667 1535 -61 140 -121 279 -134
308 l-24 52 -53 0 -54 0 -81 -197z"/>
</g>
</svg>
